<svg xmlns="http://www.w3.org/2000/svg" version="1.1" baseProfile="full" width="100%" height="100%"
      viewBox="0 0 1400 800">

      <rect x="1300" y="400" rx="40" ry="40" width="300" height="300" stroke="rgb(129, 201, 149)"
            fill="rgb(129, 201, 149)">
            <animateTransform attributeType="XML" attributeName="transform" begin="0s" dur="70s" type="rotate"
                  from="0 1450 550" to="360 1450 550" repeatCount="indefinite" />
      </rect>

      <path d="M 100 350 A 150 150 0 1 1 400 350 Q400 370 380 370 L 250 370 L 120 370 Q100 370 100 350"
            stroke="rgb(253, 214, 99)" fill="rgb(253, 214, 99)">
            <animateMotion path="M 800 -200 L 800 -300 L 800 -200" dur="20s" begin="0s" repeatCount="indefinite" />
            <animateTransform attributeType="XML" attributeName="transform" begin="0s" dur="35s" type="rotate"
                  values="0 210 530 ; -30 210 530 ; 0 210 530" keyTimes="0 ; 0.5 ; 1" repeatCount="indefinite" />
      </path>

      <!-- 圆形  -->
      <circle cx="200" cy="150" r="30" stroke="#1a73e8" fill="#1a73e8">
            <animateMotion path="M 0 0 L 100 80 Z" dur="35s" repeatCount="indefinite" />
      </circle>

      <!-- 三角形 -->
      <path d="M 265 480 L 370 480 Q375 478 370 470 L 323 383 Q320 380 317 383 L 265 470 Q260 478 265 480"
            stroke="rgb(238, 103, 92)" fill="rgb(238, 103, 92)">
            <animateTransform attributeType="XML" attributeName="transform" begin="0s" dur="35s" type="rotate"
                  from="0 310 430" to="360 310 430" repeatCount="indefinite" />
      </path>

<!--       
      <path d="M 165 480 L 270 480 Q275 478 270 470 L 223 383 Q220 380 217 383 L 165 470 Q160 478 165 480"
            stroke="rgb(238, 103, 92)" fill="rgb(238, 103, 92)">
            <animateTransform attributeType="XML" attributeName="transform" begin="0s" dur="35s" type="rotate"
                  from="0 210 430" to="360 210 430" repeatCount="indefinite" />
      </path> -->

      <!-- 圆角矩形（左边） -->
      <rect x="200" y="700" rx="40" ry="40" width="100" height="100" stroke="rgb(129, 201, 149)"
            fill="rgb(129, 201, 149)">
            <animateTransform attributeType="XML" attributeName="transform" begin="0s" dur="35s" type="rotate"
                  from="-30 300 700" to="330 300 700" repeatCount="indefinite" />
      </rect>

      <!-- 直升机 -->
      <path id="svg_1"
            d="m1070.23257,562.81786c7.33651,2.68852 20.60676,-9.86702 7.2375,-10.60211c-9.0489,-6.23475 20.06067,-1.78514 8.19824,-14.95256c-12.69098,-3.02476 -22.61195,-13.59901 -27.03076,-27.12588c-5.1622,-14.57139 -21.96586,-10.56813 -32.97542,-14.77839c-21.97026,-4.2937 -43.91569,-9.36887 -66.26092,-10.62172c-7.43139,9.16697 -10.93588,28.86019 -24.16002,28.09224c-13.21936,-7.28105 0.5583,-25.55979 -3.40243,-36.00207c-7.76484,-2.86399 -6.28358,-8.42097 1.28908,-9.12433c11.55354,-8.72871 1.94101,-25.60167 -0.57276,-37.09979c-6.11538,-10.92075 6.98008,-20.54962 11.97001,-7.66345c6.35836,13.43959 10.04948,28.19586 15.09975,42.28566c1.57583,9.0385 13.25651,3.91415 19.37418,6.61052c25.79704,3.03809 51.61865,6.09196 77.55457,7.26728c12.99232,-6.13618 26.78019,-11.27787 41.14918,-9.09737c10.04893,3.33355 15.72424,-0.77481 15.27783,-12.14884c5.70519,-16.38279 -13.98029,-9.08653 -22.85562,-11.49786c-35.40785,-1.88507 -70.92034,-2.45586 -106.31528,-0.13914c-7.85817,-2.14657 10.37891,-1.95167 13.14628,-2.44512c37.34754,-2.15974 74.77426,-1.09733 112.13148,-2.93401c10.77217,-4.34948 21.46388,3.39535 32.44668,2.0837c27.70156,1.24234 55.42797,1.67482 83.1509,1.76903c-7.83717,6.37682 -22.45658,0.06294 -32.82329,1.64265c-20.83194,-0.70014 -41.79593,-1.35685 -62.50535,1.74735c-8.06612,8.53076 -3.83159,26.74797 6.26159,30.99121c10.28591,6.05345 20.84057,11.35996 30.20464,18.55403c5.91823,12.33885 22.64568,22.69165 17.7119,38.22918c-5.65423,12.85739 -26.15711,4.77301 -31.34836,8.38887c3.84059,7.45021 17.10331,8.20371 19.48857,10.92749c-13.07727,4.12332 -0.60791,12.92805 6.82996,10.13325c9.17839,2.3788 -9.33249,4.04961 -12.38852,3.26744c-14.86924,0.13092 -29.72942,-0.56935 -44.59493,-0.79315c14.36417,-0.70162 28.76928,-0.68748 43.08935,-2.24649c-3.34021,-15.03342 -20.98801,-7.68002 -31.15664,-10.28918c-4.95709,-2.78198 -21.29678,0.74712 -13.01355,6.23673c4.62183,-2.27942 15.91835,-0.09937 5.62959,2.45658c-18.60918,0.6577 -37.28834,0.95203 -55.83745,-1.12175l0,-0.00001zm45.29379,-6.24749c-5.67215,-8.9829 -25.27397,-7.25693 -28.84122,0.92503c6.94871,6.12026 21.28831,3.99037 28.68206,0.28346l0.15916,-1.20851l0,0l0,0.00001zm41.00094,-5.23157c-8.36044,-6.45746 -23.66132,-7.17011 -31.17244,-1.92065c9.43144,4.93729 20.99994,2.92795 31.17244,1.92065zm-41.3092,-2.95802c8.88348,-8.29859 -15.67329,-6.75408 -21.10201,-6.33116c-13.42606,6.68527 5.44671,8.53159 11.08499,7.43581c3.3592,-0.02425 6.73231,-0.30017 10.01703,-1.10466l-0.00001,0z"
            stroke="rgb(238, 103, 92)" fill="rgb(238, 103, 92)">
            <animateMotion path="M 0 0 L 0 -100 Z" dur="35s" repeatCount="indefinite" />
      </path>

</svg>