<svg xmlns="http://www.w3.org/2000/svg" version="1.1" baseProfile="full" width="100%" height="100%"
     viewBox="0 0 1400 800">

  <rect x="1300" y="400" rx="40" ry="40" width="300" height="300" stroke="rgb(129, 201, 149)" fill="rgb(129, 201, 149)">
    <animateTransform attributeType="XML" attributeName="transform" begin="0s" dur="35s" type="rotate" from="0 1450 550"
                      to="360 1450 550" repeatCount="indefinite"/>
  </rect>

  <path d="M 100 350 A 150 150 0 1 1 400 350 Q400 370 380 370 L 250 370 L 120 370 Q100 370 100 350"
        stroke="rgb(253, 214, 99)" fill="rgb(253, 214, 99)">
    <animateMotion path="M 800 -200 L 800 -300 L 800 -200" dur="20s" begin="0s" repeatCount="indefinite"/>
    <animateTransform attributeType="XML" attributeName="transform" begin="0s" dur="30s" type="rotate"
                      values="0 210 530 ; -30 210 530 ; 0 210 530" keyTimes="0 ; 0.5 ; 1" repeatCount="indefinite"/>
  </path>

  <circle cx="200" cy="150" r="30" stroke="#1a73e8" fill="#1a73e8">
    <animateMotion path="M 0 0 L 40 20 Z" dur="5s" repeatCount="indefinite"/>
  </circle>

  <!-- 三角形 -->
  <path d="M 165 380 L 270 380 Q275 378 270 370 L 223 283 Q220 280 217 283 L 165 370 Q160 378 165 380" stroke="#55eae2"
        fill="#55eae2">
    <animateTransform attributeType="XML" attributeName="transform" begin="0s" dur="35s" type="rotate" from="0 210 530"
                      to="360 210 530" repeatCount="indefinite"/>
  </path>

  <rect x="400" y="600" rx="40" ry="40" width="100" height="100" stroke="rgb(129, 201, 149)" fill="rgb(129, 201, 149)">
    <animateTransform attributeType="XML" attributeName="transform" begin="0s" dur="35s" type="rotate"
                      from="-30 550 750" to="330 550 750" repeatCount="indefinite"/>
  </rect>

  <path stroke="rgb(238, 103, 92)" id="svg_3"
        d="m170.91702,508.75543c-4.11072,-8.00924 -9.13988,-14.49356 -14.1845,-19.02959c-5.88627,4.64946 -13.05543,7.48063 -20.87121,7.48063c-7.83112,0 -15.0106,-2.83669 -20.88649,-7.48063c-5.0446,4.53603 -10.07891,11.02035 -14.19971,19.02959c-9.56583,18.59516 -10.61783,37.66906 -2.35564,42.61467c3.70016,2.22784 7.57972,0.56734 11.58775,-3.59787c-0.70306,4.22326 -1.11364,8.80072 -1.11364,13.58861c0,21.2714 7.6619,38.50212 17.10435,38.50212c5.69128,0 8.50864,-6.27409 9.86338,-15.88021c1.34974,9.60611 4.16707,15.88021 9.83773,15.88021c9.45797,0 17.11994,-17.23072 17.11994,-38.50212c0,-4.7879 -0.41071,-9.36536 -1.12905,-13.58861c4.0182,4.1652 7.89266,5.82571 11.60309,3.59787c8.25711,-4.94561 7.18957,-24.01951 -2.37599,-42.61467l-0.00001,0zm-35.06581,-18.80544c15.88804,0 28.77407,-13.89856 28.77407,-31.04348s-12.88603,-31.04352 -28.77407,-31.04352c-15.89345,0 -28.78966,13.90133 -28.78966,31.04352s12.89621,31.04348 28.78966,31.04348z"
        fill="rgb(238, 103, 92)"/>
  <path stroke="rgb(238, 103, 92)" id="svg_4"
        d="m303.76441,517.34387c-4.48974,-7.25363 -9.98904,-13.12432 -15.50243,-17.22848c-6.43318,4.20949 -14.26852,6.77016 -22.81909,6.77016c-8.55603,0 -16.40265,-2.56828 -22.82749,-6.77016c-5.51338,4.10416 -11.01264,9.97484 -15.51929,17.22848c-10.45187,16.83253 -11.60723,34.10092 -2.58003,38.58095c4.04389,2.01694 8.28692,0.51117 12.66731,-3.25727c-0.77121,3.82101 -1.22834,7.96526 -1.22834,12.30242c0,19.25798 8.37381,34.8576 18.69671,34.8576c6.21726,0 9.29929,-5.68254 10.77709,-14.37942c1.47786,8.69688 4.55702,14.37942 10.76041,14.37942c10.33682,0 18.7106,-15.59963 18.7106,-34.8576c0,-4.33716 -0.44865,-8.4814 -1.23384,-12.30242c4.39439,3.76844 8.62894,5.27421 12.6812,3.25727c9.04133,-4.48004 7.87184,-21.74841 -2.58281,-38.58095zm-38.3299,-17.0254c17.37301,0 31.45643,-12.58561 31.45643,-28.10517s-14.08343,-28.10508 -31.45643,-28.10508c-17.37021,0 -31.4649,12.58299 -31.4649,28.10508s14.09468,28.10517 31.4649,28.10517zm21.48979,-57.68856c9.07769,2.98668 3.61478,-4.76315 3.61478,-10.05742s5.60313,-11.76873 -3.61478,-9.1353c-9.67505,2.7711 -17.51883,4.29452 -17.51883,9.5963s7.8438,6.40933 17.51883,9.59643zm-21.43088,-3.77087c5.74893,0 2.53794,-2.6008 2.53794,-5.80546c0,-3.20712 3.2194,-5.80045 -2.53794,-5.80045s-2.74831,2.60082 -2.74831,5.80045c0,3.21214 -3.00071,5.80546 2.74831,5.80546zm-21.55431,3.77087c9.67505,-3.17964 17.51877,-4.29711 17.51877,-9.59643s-7.84372,-6.8252 -17.51877,-9.5963c-9.21793,-2.64093 -3.61763,3.83596 -3.61763,9.1353s-5.46849,13.03907 3.61763,10.05742z"
        fill="rgb(238, 103, 92)"/>

  <path id="svg_1"
        d="m1070.23257,562.81786c7.33651,2.68852 20.60676,-9.86702 7.2375,-10.60211c-9.0489,-6.23475 20.06067,-1.78514 8.19824,-14.95256c-12.69098,-3.02476 -22.61195,-13.59901 -27.03076,-27.12588c-5.1622,-14.57139 -21.96586,-10.56813 -32.97542,-14.77839c-21.97026,-4.2937 -43.91569,-9.36887 -66.26092,-10.62172c-7.43139,9.16697 -10.93588,28.86019 -24.16002,28.09224c-13.21936,-7.28105 0.5583,-25.55979 -3.40243,-36.00207c-7.76484,-2.86399 -6.28358,-8.42097 1.28908,-9.12433c11.55354,-8.72871 1.94101,-25.60167 -0.57276,-37.09979c-6.11538,-10.92075 6.98008,-20.54962 11.97001,-7.66345c6.35836,13.43959 10.04948,28.19586 15.09975,42.28566c1.57583,9.0385 13.25651,3.91415 19.37418,6.61052c25.79704,3.03809 51.61865,6.09196 77.55457,7.26728c12.99232,-6.13618 26.78019,-11.27787 41.14918,-9.09737c10.04893,3.33355 15.72424,-0.77481 15.27783,-12.14884c5.70519,-16.38279 -13.98029,-9.08653 -22.85562,-11.49786c-35.40785,-1.88507 -70.92034,-2.45586 -106.31528,-0.13914c-7.85817,-2.14657 10.37891,-1.95167 13.14628,-2.44512c37.34754,-2.15974 74.77426,-1.09733 112.13148,-2.93401c10.77217,-4.34948 21.46388,3.39535 32.44668,2.0837c27.70156,1.24234 55.42797,1.67482 83.1509,1.76903c-7.83717,6.37682 -22.45658,0.06294 -32.82329,1.64265c-20.83194,-0.70014 -41.79593,-1.35685 -62.50535,1.74735c-8.06612,8.53076 -3.83159,26.74797 6.26159,30.99121c10.28591,6.05345 20.84057,11.35996 30.20464,18.55403c5.91823,12.33885 22.64568,22.69165 17.7119,38.22918c-5.65423,12.85739 -26.15711,4.77301 -31.34836,8.38887c3.84059,7.45021 17.10331,8.20371 19.48857,10.92749c-13.07727,4.12332 -0.60791,12.92805 6.82996,10.13325c9.17839,2.3788 -9.33249,4.04961 -12.38852,3.26744c-14.86924,0.13092 -29.72942,-0.56935 -44.59493,-0.79315c14.36417,-0.70162 28.76928,-0.68748 43.08935,-2.24649c-3.34021,-15.03342 -20.98801,-7.68002 -31.15664,-10.28918c-4.95709,-2.78198 -21.29678,0.74712 -13.01355,6.23673c4.62183,-2.27942 15.91835,-0.09937 5.62959,2.45658c-18.60918,0.6577 -37.28834,0.95203 -55.83745,-1.12175l0,-0.00001zm45.29379,-6.24749c-5.67215,-8.9829 -25.27397,-7.25693 -28.84122,0.92503c6.94871,6.12026 21.28831,3.99037 28.68206,0.28346l0.15916,-1.20851l0,0l0,0.00001zm41.00094,-5.23157c-8.36044,-6.45746 -23.66132,-7.17011 -31.17244,-1.92065c9.43144,4.93729 20.99994,2.92795 31.17244,1.92065zm-41.3092,-2.95802c8.88348,-8.29859 -15.67329,-6.75408 -21.10201,-6.33116c-13.42606,6.68527 5.44671,8.53159 11.08499,7.43581c3.3592,-0.02425 6.73231,-0.30017 10.01703,-1.10466l-0.00001,0z"
        stroke="rgb(238, 103, 92)" fill="rgb(238, 103, 92)">
    <animateMotion path="M 0 0 L 0 -100 Z" dur="10s" repeatCount="indefinite"/>
  </path>

</svg>
